<svg width="24" height="24" viewBox="0 0 24 24" fill="none" xmlns="http://www.w3.org/2000/svg">
<path d="M12.9995 3.99805L7.19951 3.99805C6.07941 3.99805 5.51935 3.99805 5.09153 4.21603C4.71521 4.40778 4.40925 4.71374 4.2175 5.09007C3.99951 5.51789 3.99951 6.07794 3.99951 7.19805L3.99951 16.798C3.99951 17.9182 3.99951 18.4782 4.2175 18.906C4.40925 19.2824 4.71521 19.5883 5.09153 19.7801C5.51935 19.998 6.07941 19.998 7.19951 19.998L16.7995 19.998C17.9196 19.998 18.4797 19.998 18.9075 19.7801C19.2838 19.5883 19.5898 19.2824 19.7815 18.906C19.9995 18.4782 19.9995 17.9182 19.9995 16.798V11.998M10.519 13.8941L11.8338 13.6343C12.5433 13.494 12.898 13.4239 13.2288 13.2948C13.5224 13.1802 13.8014 13.0313 14.0601 12.8511C14.3515 12.6482 14.6072 12.3925 15.1185 11.8812L20.267 6.73273C20.9542 6.04547 20.9542 4.93121 20.267 4.24396C19.5797 3.5567 18.4654 3.5567 17.7782 4.24396L12.5418 9.48039C12.0626 9.95956 11.823 10.1991 11.6295 10.4707C11.4577 10.7118 11.3132 10.9713 11.1987 11.2442C11.0697 11.5517 10.9922 11.8816 10.8371 12.5412L10.519 13.8941Z" stroke="#081C15" stroke-width="2" stroke-linecap="round" stroke-linejoin="round"/>
</svg>
