<svg width="24" height="25" viewBox="0 0 24 25" fill="none" xmlns="http://www.w3.org/2000/svg">
<path opacity="0.4" d="M19 10.7798V17.9298C18.97 20.7798 18.19 21.4998 15.22 21.4998H5.78003C2.76003 21.4998 2 20.7498 2 17.7698V10.7798C2 8.0798 2.63 7.2098 5 7.0698C5.24 7.0598 5.50003 7.0498 5.78003 7.0498H15.22C18.24 7.0498 19 7.7998 19 10.7798Z" fill="#292D32"/>
<path d="M22 7.23V14.22C22 16.92 21.37 17.79 19 17.93V10.78C19 7.8 18.24 7.05 15.22 7.05H5.78003C5.50003 7.05 5.24 7.06 5 7.07C5.03 4.22 5.81003 3.5 8.78003 3.5H18.22C21.24 3.5 22 4.25 22 7.23Z" fill="#292D32"/>
<path d="M6.96002 19.0596H5.23999C4.82999 19.0596 4.48999 18.7196 4.48999 18.3096C4.48999 17.8996 4.82999 17.5596 5.23999 17.5596H6.96002C7.37002 17.5596 7.71002 17.8996 7.71002 18.3096C7.71002 18.7196 7.38002 19.0596 6.96002 19.0596Z" fill="#292D32"/>
<path d="M12.55 19.0596H9.10999C8.69999 19.0596 8.35999 18.7196 8.35999 18.3096C8.35999 17.8996 8.69999 17.5596 9.10999 17.5596H12.55C12.96 17.5596 13.3 17.8996 13.3 18.3096C13.3 18.7196 12.97 19.0596 12.55 19.0596Z" fill="#292D32"/>
<path d="M19 12.3604H2V13.8604H19V12.3604Z" fill="#292D32"/>
</svg>
