<svg width="40" height="40" viewBox="0 0 40 40" fill="none" xmlns="http://www.w3.org/2000/svg">
<path d="M15 20L18.3334 23.3333L25 16.6667M33.3334 20C33.3334 27.4352 24.2334 32.8229 21.0691 34.4716C20.7268 34.65 20.5557 34.7391 20.3183 34.7853C20.1334 34.8213 19.8667 34.8213 19.6818 34.7853C19.4444 34.7391 19.2732 34.65 18.931 34.4716C15.7666 32.8229 6.66669 27.4352 6.66669 20V13.696C6.66669 12.3635 6.66669 11.6972 6.88462 11.1245C7.07714 10.6186 7.38999 10.1671 7.79612 9.80923C8.25585 9.40407 8.87968 9.17013 10.1274 8.70226L19.0637 5.35113C19.4102 5.2212 19.5834 5.15623 19.7617 5.13048C19.9197 5.10763 20.0803 5.10763 20.2384 5.13048C20.4166 5.15623 20.5899 5.2212 20.9363 5.35113L29.8727 8.70226C31.1204 9.17013 31.7442 9.40407 32.2039 9.80923C32.61 10.1671 32.9229 10.6186 33.1154 11.1245C33.3334 11.6972 33.3334 12.3635 33.3334 13.696V20Z" stroke="#081C15" stroke-width="2" stroke-linecap="round" stroke-linejoin="round"/>
</svg>
