<svg width="40" height="40" viewBox="0 0 40 40" fill="none" xmlns="http://www.w3.org/2000/svg">
<path d="M5 35H4C4 35.5523 4.44772 36 5 36V35ZM35 35V36C35.5523 36 36 35.5523 36 35H35ZM10 10.6667C9.44772 10.6667 9 11.1144 9 11.6667C9 12.219 9.44772 12.6667 10 12.6667V10.6667ZM11.6667 12.6667C12.219 12.6667 12.6667 12.219 12.6667 11.6667C12.6667 11.1144 12.219 10.6667 11.6667 10.6667V12.6667ZM18.3333 10.6667C17.781 10.6667 17.3333 11.1144 17.3333 11.6667C17.3333 12.219 17.781 12.6667 18.3333 12.6667V10.6667ZM20 12.6667C20.5523 12.6667 21 12.219 21 11.6667C21 11.1144 20.5523 10.6667 20 10.6667V12.6667ZM10 15.6667C9.44772 15.6667 9 16.1144 9 16.6667C9 17.219 9.44772 17.6667 10 17.6667V15.6667ZM11.6667 17.6667C12.219 17.6667 12.6667 17.219 12.6667 16.6667C12.6667 16.1144 12.219 15.6667 11.6667 15.6667V17.6667ZM18.3333 15.6667C17.781 15.6667 17.3333 16.1144 17.3333 16.6667C17.3333 17.219 17.781 17.6667 18.3333 17.6667V15.6667ZM20 17.6667C20.5523 17.6667 21 17.219 21 16.6667C21 16.1144 20.5523 15.6667 20 15.6667V17.6667ZM10 20.6667C9.44772 20.6667 9 21.1144 9 21.6667C9 22.219 9.44772 22.6667 10 22.6667V20.6667ZM11.6667 22.6667C12.219 22.6667 12.6667 22.219 12.6667 21.6667C12.6667 21.1144 12.219 20.6667 11.6667 20.6667V22.6667ZM18.3333 20.6667C17.781 20.6667 17.3333 21.1144 17.3333 21.6667C17.3333 22.219 17.781 22.6667 18.3333 22.6667V20.6667ZM20 22.6667C20.5523 22.6667 21 22.219 21 21.6667C21 21.1144 20.5523 20.6667 20 20.6667V22.6667ZM18.3333 35V36H19.3333V35H18.3333ZM11.6667 35H10.6667V36H11.6667V35ZM30 17.3333C29.4477 17.3333 29 17.781 29 18.3333C29 18.8856 29.4477 19.3333 30 19.3333V17.3333ZM30.0167 19.3333C30.569 19.3333 31.0167 18.8856 31.0167 18.3333C31.0167 17.781 30.569 17.3333 30.0167 17.3333V19.3333ZM30 22.3333C29.4477 22.3333 29 22.781 29 23.3333C29 23.8856 29.4477 24.3333 30 24.3333V22.3333ZM30.0167 24.3333C30.569 24.3333 31.0167 23.8856 31.0167 23.3333C31.0167 22.781 30.569 22.3333 30.0167 22.3333V24.3333ZM30 27.3333C29.4477 27.3333 29 27.781 29 28.3333C29 28.8856 29.4477 29.3333 30 29.3333V27.3333ZM30.0167 29.3333C30.569 29.3333 31.0167 28.8856 31.0167 28.3333C31.0167 27.781 30.569 27.3333 30.0167 27.3333V29.3333ZM34.8183 12.5767L33.9273 13.0307L34.8183 12.5767ZM34.09 11.8483L33.636 12.7393L34.09 11.8483ZM24.09 5.18166L23.636 6.07266L24.09 5.18166ZM24.8183 5.91002L23.9273 6.36401L24.8183 5.91002ZM5.18166 5.91002L6.07266 6.36401L5.18166 5.91002ZM5.91002 5.18166L6.36401 6.07266L5.91002 5.18166ZM4 7.66667V35H6V7.66667H4ZM7.66667 6H22.3333V4H7.66667V6ZM24 7.66667V11.6667H26V7.66667H24ZM24 11.6667V35H26V11.6667H24ZM5 36H25V34H5V36ZM25 36H35V34H25V36ZM34 14.3333V35H36V14.3333H34ZM25 12.6667H32.3333V10.6667H25V12.6667ZM10 12.6667H11.6667V10.6667H10V12.6667ZM18.3333 12.6667H20V10.6667H18.3333V12.6667ZM10 17.6667H11.6667V15.6667H10V17.6667ZM18.3333 17.6667H20V15.6667H18.3333V17.6667ZM10 22.6667H11.6667V20.6667H10V22.6667ZM18.3333 22.6667H20V20.6667H18.3333V22.6667ZM17.3333 30V35H19.3333V30H17.3333ZM18.3333 34H11.6667V36H18.3333V34ZM12.6667 35V30H10.6667V35H12.6667ZM15 27.6667C16.2887 27.6667 17.3333 28.7113 17.3333 30H19.3333C19.3333 27.6068 17.3932 25.6667 15 25.6667V27.6667ZM15 25.6667C12.6068 25.6667 10.6667 27.6068 10.6667 30H12.6667C12.6667 28.7113 13.7113 27.6667 15 27.6667V25.6667ZM30 19.3333H30.0167V17.3333H30V19.3333ZM30 24.3333H30.0167V22.3333H30V24.3333ZM30 29.3333H30.0167V27.3333H30V29.3333ZM36 14.3333C36 13.8831 36.0008 13.4853 35.974 13.1572C35.9462 12.8175 35.884 12.4654 35.7094 12.1227L33.9273 13.0307C33.9344 13.0445 33.963 13.104 33.9806 13.3201C33.9992 13.5479 34 13.8501 34 14.3333H36ZM32.3333 12.6667C32.8165 12.6667 33.1188 12.6674 33.3466 12.6861C33.5626 12.7037 33.6222 12.7323 33.636 12.7393L34.544 10.9573C34.2012 10.7827 33.8492 10.7205 33.5094 10.6927C33.1813 10.6659 32.7835 10.6667 32.3333 10.6667V12.6667ZM35.7094 12.1227C35.4537 11.6209 35.0457 11.213 34.544 10.9573L33.636 12.7393C33.7614 12.8032 33.8634 12.9052 33.9273 13.0307L35.7094 12.1227ZM22.3333 6C22.8165 6 23.1188 6.00078 23.3466 6.01939C23.5626 6.03704 23.6222 6.06564 23.636 6.07266L24.544 4.29065C24.2012 4.11602 23.8492 4.05379 23.5094 4.02603C23.1813 3.99922 22.7835 4 22.3333 4V6ZM26 7.66667C26 7.21646 26.0008 6.81866 25.974 6.49057C25.9462 6.15081 25.884 5.79875 25.7094 5.45603L23.9273 6.36401C23.9344 6.3778 23.963 6.43736 23.9806 6.65344C23.9992 6.88119 24 7.18346 24 7.66667H26ZM23.636 6.07266C23.7614 6.13658 23.8634 6.23856 23.9273 6.36401L25.7094 5.45603C25.4537 4.95426 25.0457 4.54631 24.544 4.29065L23.636 6.07266ZM6 7.66667C6 7.18346 6.00078 6.88119 6.01939 6.65344C6.03704 6.43736 6.06563 6.3778 6.07266 6.36401L4.29065 5.45603C4.11602 5.79875 4.05379 6.15081 4.02603 6.49057C3.99922 6.81866 4 7.21646 4 7.66667H6ZM7.66667 4C7.21646 4 6.81866 3.99922 6.49057 4.02603C6.15081 4.05379 5.79875 4.11602 5.45603 4.29065L6.36401 6.07266C6.3778 6.06563 6.43736 6.03704 6.65344 6.01939C6.88119 6.00078 7.18346 6 7.66667 6V4ZM6.07266 6.36401C6.13658 6.23856 6.23856 6.13658 6.36401 6.07266L5.45603 4.29065C4.95426 4.54631 4.54631 4.95426 4.29065 5.45603L6.07266 6.36401Z" fill="#081C15"/>
</svg>
