<svg width="24" height="25" viewBox="0 0 24 25" fill="none" xmlns="http://www.w3.org/2000/svg">
<path opacity="0.4" d="M16.19 2.5H7.81C4.17 2.5 2 4.67 2 8.31V16.68C2 20.33 4.17 22.5 7.81 22.5H16.18C19.82 22.5 21.99 20.33 21.99 16.69V8.31C22 4.67 19.83 2.5 16.19 2.5Z" fill="#292D32"/>
<path d="M15.75 10.25H8.25C7.84 10.25 7.5 9.91 7.5 9.5C7.5 9.09 7.84 8.75 8.25 8.75H15.75C16.16 8.75 16.5 9.09 16.5 9.5C16.5 9.91 16.16 10.25 15.75 10.25Z" fill="#292D32"/>
<path d="M15.75 16.25H8.25C7.84 16.25 7.5 15.91 7.5 15.5C7.5 15.09 7.84 14.75 8.25 14.75H15.75C16.16 14.75 16.5 15.09 16.5 15.5C16.5 15.91 16.16 16.25 15.75 16.25Z" fill="#292D32"/>
</svg>
