<svg width="24" height="25" viewBox="0 0 24 25" fill="none" xmlns="http://www.w3.org/2000/svg">
<path d="M21.25 22.5H2.75C2.34 22.5 2 22.16 2 21.75C2 21.34 2.34 21 2.75 21H21.25C21.66 21 22 21.34 22 21.75C22 22.16 21.66 22.5 21.25 22.5Z" fill="#292D32"/>
<path opacity="0.4" d="M20.59 14.1997L13.36 21.4297C11.94 22.8497 9.65 22.8497 8.24 21.4397L3.63 16.8297L15.99 4.46973L20.6 9.07973C22.01 10.4897 22.01 12.7797 20.59 14.1997Z" fill="#292D32"/>
<path d="M15.9899 4.47016L3.61994 16.8302L2.70994 15.9202C1.29994 14.5102 1.29994 12.2202 2.71994 10.8002L9.94994 3.57016C11.3699 2.15016 13.6599 2.15016 15.0699 3.56016L15.9899 4.47016Z" fill="#292D32"/>
<path d="M12.8899 18.0999L11.5399 19.4499C11.2599 19.7299 10.8099 19.7299 10.5299 19.4499C10.2499 19.1699 10.2499 18.7199 10.5299 18.4399L11.8799 17.0899C12.1599 16.8099 12.6099 16.8099 12.8899 17.0899C13.1699 17.3699 13.1699 17.8199 12.8899 18.0999Z" fill="#292D32"/>
<path d="M17.27 13.72L14.58 16.41C14.3 16.69 13.85 16.69 13.57 16.41C13.29 16.13 13.29 15.68 13.57 15.4L16.26 12.71C16.54 12.43 16.99 12.43 17.27 12.71C17.54 12.99 17.54 13.44 17.27 13.72Z" fill="#292D32"/>
</svg>
