<svg width="24" height="25" viewBox="0 0 24 25" fill="none" xmlns="http://www.w3.org/2000/svg">
<path d="M15 16C15 19.59 12.09 22.5 8.5 22.5C4.91 22.5 2 19.59 2 16C2 12.41 4.91 9.5 8.5 9.5C8.67 9.5 8.84999 9.51 9.01999 9.52C12.19 9.77 14.73 12.31 14.98 15.48C14.99 15.65 15 15.83 15 16Z" fill="#292D32"/>
<path opacity="0.4" d="M22 9C22 12.59 19.09 15.5 15.5 15.5C15.33 15.5 15.15 15.49 14.98 15.48C14.73 12.31 12.19 9.77 9.01999 9.52C9.00999 9.35 9 9.17 9 9C9 5.41 11.91 2.5 15.5 2.5C19.09 2.5 22 5.41 22 9Z" fill="#292D32"/>
<path d="M5.59 2.5H3C2.45 2.5 2 2.95 2 3.5V6.09C2 6.98 3.07999 7.43 3.70999 6.8L6.29999 4.21001C6.91999 3.58001 6.48 2.5 5.59 2.5Z" fill="#292D32"/>
<path d="M18.41 22.5003H21C21.55 22.5003 22 22.0503 22 21.5003V18.9103C22 18.0203 20.92 17.5703 20.29 18.2003L17.7 20.7903C17.08 21.4203 17.52 22.5003 18.41 22.5003Z" fill="#292D32"/>
</svg>
